<svg xmlns="http://www.w3.org/2000/svg" width="390" height="414.5" viewBox="0 0 390 414.5">
  <g id="Vetor" transform="translate(0.5 0.5)">
    <g id="BG" transform="translate(-19 -519)">
      <path id="União_180" data-name="União 180" d="M-1354-688v-17h45v17Zm-22-23v-17h45v17Z" transform="translate(1717 1247)" fill="#f6f7ff" stroke="rgba(0,0,0,0)" stroke-width="1"/>
      <path id="União_182" data-name="União 182" d="M-1325-688v-17h45v17Zm-51,0v-17h45v17Zm24-23v-17h45v17Z" transform="translate(1395 1546)" fill="#f6f7ff" stroke="rgba(0,0,0,0)" stroke-width="1"/>
      <path id="União_181" data-name="União 181" d="M-1376-688v-17h45v17Zm22-23v-17h45v17Z" transform="translate(1432 1309)" fill="#f6f7ff" stroke="rgba(0,0,0,0)" stroke-width="1"/>
      <rect id="Retângulo_4876" data-name="Retângulo 4876" width="45" height="17" transform="translate(357 752)" fill="#f6f7ff"/>
    </g>
    <g id="OP" transform="translate(-2002.505 -1098.553)">
      <g id="Character" transform="translate(2005.505 1210.826)">
        <g id="pessoa" transform="translate(0 0)">
          <g id="cima">
            <g id="Braço-direito" transform="translate(125.44 26.281)">
              <path id="Caminho_1805" data-name="Caminho 1805" d="M129.983,244.176C163.7,288.987,243.748,352.008,262.53,337.35c23.091-18.02,18.8-84.308,19.285-92.826.519-9.133-75.2-6.824-72.167,2.486,1.8,5.506,2.641,11.405,1.216,10.846-4.466-1.753-14.369-10.657-57.387-34.763C129.507,209.659,107.664,214.51,129.983,244.176Z" transform="translate(-116.649 -129.333)" fill="#a56a62"/>
              <g id="manga" transform="translate(0 81.021)">
                <path id="Caminho_1806" data-name="Caminho 1806" d="M201.509,250.273l-17.67,17.336-22.23,21.821s-25.317-24.55-36.276-44.781c-8.035-14.888-8.286-27.442-.3-30.19,2.892-1.013,6.816-.74,11.846,1.136C165.559,226.351,201.509,250.273,201.509,250.273Z" transform="translate(-119.172 -213.879)" fill="#f28e00"/>
                <path id="Caminho_1807" data-name="Caminho 1807" d="M167.9,225.807c-7.094,6.458-32.737,30.444-34.782,34.606-.043.091.2.334.289.289,4.175-2.013,28.4-27.432,34.905-34.48C168.438,226.09,168.037,225.687,167.9,225.807Z" transform="translate(-95.846 -193.962)" fill="#404040"/>
                <path id="Caminho_1808" data-name="Caminho 1808" d="M183.839,267.246l-22.23,21.821s-25.317-24.55-36.276-44.781c-8.035-14.888-8.286-27.442-.3-30.19Z" transform="translate(-119.172 -213.516)" fill="#404040"/>
              </g>
              <g id="mão" transform="translate(71.205 0)">
                <path id="Caminho_1809" data-name="Caminho 1809" d="M230.5,226.464c4.282,14.524,1.422,47.655-2.344,55.382s-60.246,4.734-65.269-2.515-15.65-57.272-9.8-71.569S226.066,211.416,230.5,226.464Z" transform="translate(-136.496 -151.841)" fill="#a56a62"/>
                <g id="mão-2" data-name="mão" transform="translate(6.609)">
                  <path id="União_168" data-name="União 168" d="M41.405,101.214c-8.638-2.374-8.275-16.678-8.239-17.5-.238.878-3.416,13.18-11.39,10.1-8.263-3.216-7.462-18.759-7.462-18.759s.292-3.438,1.139-8.579c-3.848.363-7-.389-6.91-3.862.226-8.817.361-27.032-4.3-39.363C1.982,17.271-3.091,2.376,2.62.177S20.185,16.812,22.639,23.4a82.538,82.538,0,0,1,3.128,10.8c1.376-2.17,5.941-6.539,10.659-5.379,6.115,1.479,7.212,8.21,7.212,8.21s4.78-4.595,8.244-3.534c6.74,2.085,7.763,10.534,7.763,10.534a8.372,8.372,0,0,1,10.388-1.47C81.41,49.085,87.4,74.623,87.4,74.623,86.921,74.5,72.1,67.1,72.1,67.1c-5.295,8.143,1.547,34.843-10.436,34.311-6.973-.318-9.933-10.676-10.144-11.463-.061.76-.956,11.578-7.948,11.578A8.2,8.2,0,0,1,41.405,101.214Z" transform="translate(0)" fill="#a56a62" stroke="rgba(0,0,0,0)" stroke-width="1"/>
                  <g id="contorno" transform="translate(14.041 32.906)">
                    <path id="Caminho_1812" data-name="Caminho 1812" d="M166.259,196.047a.113.113,0,0,0-.2-.115c-8.024,12.162-13.11,27.98-12.472,42.621.021.481.81.655.887.123C156.706,223.457,159.9,210.13,166.259,196.047Z" transform="translate(-153.538 -195.878)" fill="#404040"/>
                    <path id="Caminho_1813" data-name="Caminho 1813" d="M171.943,197.453c.07-.152-.182-.27-.281-.12-8.2,12.576-13.439,30.551-10.716,47.342.094.575.754,1,.7.329C160.68,233.7,166.151,210.1,171.943,197.453Z" transform="translate(-142.357 -193.56)" fill="#404040"/>
                    <path id="Caminho_1814" data-name="Caminho 1814" d="M169.555,246.882c-1.989-16.2,1.414-31.409,7.155-46.527.075-.2-.211-.281-.318-.134-4.825,6.629-7.479,16.646-8.885,24.617a43.038,43.038,0,0,0,1.481,22.113C169.087,247.238,169.6,247.23,169.555,246.882Z" transform="translate(-131.482 -188.736)" fill="#404040"/>
                    <path id="Caminho_1815" data-name="Caminho 1815" d="M153.7,216.625a48.878,48.878,0,0,0,1.181,8.89c.7,2.855,1.753,5.768,3.71,7.733a5.4,5.4,0,0,0,3.507,1.646,7.847,7.847,0,0,0,3.9-.783c2.371-1.176,3.9-3.83,4.52-6.369l1.561-6.391.756,6.546a26.961,26.961,0,0,0,2.315,8.4c1.227,2.577,3.135,4.819,5.629,5.5a5.5,5.5,0,0,0,6.53-2.3,16.618,16.618,0,0,0,2.293-8.013l.462-7.781,2.1,7.471a25.41,25.41,0,0,0,2.515,5.944,10.417,10.417,0,0,0,4.236,4.266,4.949,4.949,0,0,0,5.193-.535c1.438-1.213,2.261-3.341,2.841-5.429,1.136-4.279,1.366-8.861,1.82-13.388.211-2.272.417-4.552.738-6.826.353-2.24.706-4.611,1.978-6.546-1.059,2.039-1.144,4.373-1.35,6.613-.144,2.267-.177,4.541-.214,6.821a73.467,73.467,0,0,1-1.144,13.776c-.551,2.267-1.227,4.707-3.2,6.618a7.025,7.025,0,0,1-7.631,1.085,12.741,12.741,0,0,1-5.4-5.156,27.636,27.636,0,0,1-2.9-6.578l2.561-.31a19.075,19.075,0,0,1-2.614,9.494,7.961,7.961,0,0,1-4.237,3.344,9,9,0,0,1-5.327-.045c-3.52-1.058-5.808-4.065-7.129-6.963a29.2,29.2,0,0,1-2.4-9.286l2.315.155a11.452,11.452,0,0,1-6,7.58,9.631,9.631,0,0,1-4.875.716,6.965,6.965,0,0,1-4.384-2.288c-2.192-2.483-2.921-5.61-3.451-8.575A40.275,40.275,0,0,1,153.7,216.625Z" transform="translate(-153.424 -174.476)" fill="#404040"/>
                  </g>
                </g>
                <g id="dedão" transform="translate(0 61.657)">
                  <path id="Caminho_1816" data-name="Caminho 1816" d="M168.9,263.727s-40.954-49.5-13.765-56.023c8.08-1.941,43.573-.262,43.375,6.872-.257,9.213-15.2,11.28-24.794,11.087,0,0,16.3,14.875,9.331,29.311C178.669,264.029,168.9,263.727,168.9,263.727Z" transform="translate(-145.812 -206.097)" fill="#a56a62"/>
                  <path id="Caminho_1817" data-name="Caminho 1817" d="M148.466,208.924a33.613,33.613,0,0,1,9.582-2.013,72.664,72.664,0,0,1,9.828-.2,112.625,112.625,0,0,1,19.563,2.333,18.527,18.527,0,0,1,4.907,1.791,6.916,6.916,0,0,1,2.251,1.962,4.9,4.9,0,0,1,.748,1.467,5.109,5.109,0,0,1,.2,1.617,8.257,8.257,0,0,1-2.229,5.282,15.456,15.456,0,0,1-4.341,3.146,29.719,29.719,0,0,1-9.8,2.646,67.436,67.436,0,0,1-9.922.382l.767-1.991a39.8,39.8,0,0,1,4.857,5.765,36.667,36.667,0,0,1,3.662,6.522,25.422,25.422,0,0,1,1.871,7.222,19.3,19.3,0,0,1-.607,7.337,21.736,21.736,0,0,0-.179-7.222,26.309,26.309,0,0,0-2.392-6.736,35.063,35.063,0,0,0-3.846-6.019,37.681,37.681,0,0,0-4.865-5.159l-2.208-1.911,2.975-.08a72.012,72.012,0,0,0,9.542-.668,28.967,28.967,0,0,0,8.922-2.518c2.617-1.318,5.03-3.531,5.073-6.043.23-2.2-3.09-3.523-6.035-4.293a93.546,93.546,0,0,0-9.425-1.855c-3.194-.505-6.394-.973-9.606-1.272C161.357,207.935,154.809,207.4,148.466,208.924Z" transform="translate(-141.373 -206.634)" fill="#404040"/>
                </g>
              </g>
              <path id="Caminho_1818" data-name="Caminho 1818" d="M154.421,231.651l2.224,6.337,2.141,6.348L163.1,257q2.165,6.319,4.466,12.584c.772,2.085,1.545,4.178,2.419,6.225.764,2.1,1.716,4.114,2.558,6.2a82.118,82.118,0,0,1-6.431-11.827c-1.9-4.076-3.448-8.291-4.945-12.52-1.443-4.244-2.764-8.529-3.878-12.872S155.124,236.088,154.421,231.651Z" transform="translate(-60.206 -103.127)" fill="#404040"/>
            </g>
            <g id="camisa" transform="translate(0 100.897)">
              <path id="Caminho_1819" data-name="Caminho 1819" d="M235.264,404.559c-4.007,3.224-162.751,5.006-163.43,3.878-1.823-3.05,41.245-147.858,108.925-192.853,11.926-7.93,30.083-2.451,37.96,3.713,3.937,3.079,15.4,26.542,16.978,45.7C237.255,284.117,237.787,402.5,235.264,404.559Z" transform="translate(-71.778 -211.639)" fill="#f28e00"/>
              <path id="Caminho_1820" data-name="Caminho 1820" d="M220.673,310.1v1.256c-.748-.454-1.524-.962-2.245-1.5-5.934-4.277-10.531-10.023-14.7-15.9-4.17-5.907-7.912-12.081-11.707-18.176-5.372-8.5-10.879-17.187-17.694-24.537-.294-.294-.561-.588-.829-.882a67.628,67.628,0,0,0-8.553-7.564,46.19,46.19,0,0,0-40.441-7.03,43.95,43.95,0,0,0-16.011,9.409c.642-1.1,1.31-2.165,1.951-3.261a43.681,43.681,0,0,1,13.658-7.377,47.5,47.5,0,0,1,21.65-1.336,46.683,46.683,0,0,1,19.94,8.58,67.835,67.835,0,0,1,9.3,8.393c.294.321.588.615.855.935,6.629,7.324,11.974,15.77,17.16,24.056,3.8,6.121,7.511,12.269,11.627,18.149,4.116,5.827,8.66,11.52,14.407,15.69C219.577,309.377,220.112,309.751,220.673,310.1Zm-14.995,6.843a54.622,54.622,0,0,1-21.784-5.373c-13.765-6.549-24.831-17.373-35.87-27.825-4.009-3.8-7.992-7.591-12.215-11.173a6.989,6.989,0,0,0-.668-.588c-1.39-1.176-2.806-2.325-4.277-3.448-6.067-4.651-12.8-8.74-20.421-10.424a33.192,33.192,0,0,0-8.9-.8c-.214.348-.4.695-.615,1.069a32.14,32.14,0,0,1,9.3.748c7.35,1.657,13.979,5.666,19.966,10.291,1.39,1.069,2.726,2.165,4.063,3.288a7.333,7.333,0,0,1,.695.588c4.223,3.582,8.259,7.457,12.3,11.28,10.986,10.478,22.1,21.436,36.084,28.119a55.227,55.227,0,0,0,22.318,5.56,57.8,57.8,0,0,0,14.995-1.577c0-.454.027-.882,0-1.336A57.632,57.632,0,0,1,205.678,316.941Zm14.861-37.527c-1.631-2.673-3.314-5.319-5.105-7.885-4.17-5.88-8.927-11.547-15.022-15.636a35.468,35.468,0,0,0-20.715-5.987c-1.577.027-3.127.107-4.7.267-.481.054-.989.107-1.5.187a45.314,45.314,0,0,0-4.624.855,53.785,53.785,0,0,0-10.184,3.822c-8.74,4.437-16.171,10.692-23.548,16.946-.294.241-.588.508-.882.722-3.314,2.86-6.655,5.666-10.077,8.313a88.7,88.7,0,0,1-18.256,11.28,59.252,59.252,0,0,1-20.768,4.972c-1.123.053-2.219.107-3.314.107-.107.241-.214.481-.294.722,1.229-.027,2.459-.08,3.662-.134a60.1,60.1,0,0,0,21.009-4.971,91.237,91.237,0,0,0,18.47-11.306c3.5-2.673,6.9-5.533,10.264-8.393.294-.241.561-.481.855-.722,7.35-6.228,14.728-12.375,23.308-16.679a51.693,51.693,0,0,1,10-3.715,42.521,42.521,0,0,1,5.212-.936c.508-.053,1.016-.107,1.524-.134,1.283-.134,2.566-.187,3.849-.214a34.666,34.666,0,0,1,20.127,5.88c5.907,3.983,10.585,9.542,14.7,15.4,2.138,3.074,4.116,6.228,6.041,9.462C220.566,280.884,220.566,280.136,220.539,279.414Z" transform="translate(-55.431 -176.666)" fill="#fff"/>
            </g>
            <g id="cabeça" transform="translate(121.567)">
              <g id="pescoço" transform="translate(0 70.457)">
                <path id="Caminho_1821" data-name="Caminho 1821" d="M140.966,266.106c-9.312-.417-20.512-17.983-23.364-30.455-.19-.855,11.288-29.578,12.969-35.506.339-1.219,34.667,19.6,34.667,19.6s-7.185,11.389-10.055,21.741C154.953,242.353,149.966,266.5,140.966,266.106Z" transform="translate(-117.6 -200.094)" fill="#a56a62"/>
                <path id="Caminho_1822" data-name="Caminho 1822" d="M123.065,200.225c-.831,10.1-1.061,36.862,19.047,43.095a24.547,24.547,0,0,0,3.71.82c.406-1.633.636-2.708.684-2.889,2.857-10.331,10.037-21.723,10.037-21.723-.019-.035-.045-.04-.1-.053a5.465,5.465,0,0,0-.572-.347c-.019-.032-.07-.045-.1-.053-.257-.179-.572-.345-.952-.583-.115-.088-.238-.147-.38-.241-.238-.147-.5-.3-.764-.452-.307-.192-.615-.385-.952-.585-.5-.3-1.026-.6-1.6-.951a5.34,5.34,0,0,0-.6-.353c-.4-.246-.81-.492-1.24-.743-1.5-.9-3.122-1.882-4.846-2.892-.623-.361-1.24-.746-1.863-1.1-.791-.46-1.58-.92-2.365-1.406l-2.371-1.377c-.1-.054-.192-.107-.315-.166-1.363-.8-2.732-1.585-4.023-2.341-.457-.262-.914-.521-1.344-.772-.887-.513-1.753-.994-2.571-1.459q-.906-.489-1.737-.96c-1.331-.714-2.494-1.328-3.413-1.82-.273-.128-.516-.249-.762-.369C123.458,200.412,123.266,200.308,123.065,200.225Z" transform="translate(-108.918 -199.874)" fill="#404040"/>
              </g>
              <g id="Rosto" transform="translate(5.752)">
                <path id="Caminho_1823" data-name="Caminho 1823" d="M134.594,190.609c-8.775,11.33-16.04,50.913-10.045,62.623,8.695,16.981,29.923,26.333,46.126,14.311,15.706-11.654,24.259-63.406,16.909-74.771C176.759,176.037,147.558,173.875,134.594,190.609Z" transform="translate(-115.398 -164.778)" fill="#a56a62"/>
                <g id="rosto-2" data-name="rosto" transform="translate(37.522 51.515)">
                  <path id="Caminho_1828" data-name="Caminho 1828" d="M.308.091c.417.826.759,1.884,1.684,2.288a7.307,7.307,0,0,0,3.044.3A.1.1,0,0,1,5.1,2.85a3.734,3.734,0,0,1-3.814.294A2.949,2.949,0,0,1,.014.123C.025-.042.247-.029.308.091Z" transform="matrix(-0.966, 0.259, -0.259, -0.966, 5.882, 36.794)" fill="#404040"/>
                  <path id="Caminho_1829" data-name="Caminho 1829" d="M147.8,219.481s-.553,4.138-1.072,6.019c-.051.176-5.279-1.759-11.306-1.425-.9.051-.706-.644.38-.946,2.165-.6,4.867-1.058,9.761.289.278-.484.735-6.391,1.037-6.332a17.033,17.033,0,0,1,4,2.152c1.4-8.591,1.417-17.336,2.943-25.871a.265.265,0,0,1,.524.016c.633,9.165-.762,19.087-1.983,28C151.949,222.493,148.469,220.008,147.8,219.481Z" transform="translate(-132.011 -192.766)" fill="#404040"/>
                  <path id="União_173" data-name="União 173" d="M1.964,17.235c-.093-.01-.067-.144.012-.156a3.818,3.818,0,0,0,2.774-1.81,2.564,2.564,0,0,1-2.656.7C-1.837,14.673.65,6.082,4.9,7.482c1.311.433,1.8,1.873,1.7,3.455-.129,2.56-1.477,6.316-4.3,6.315A3.324,3.324,0,0,1,1.964,17.235ZM.79,3.874A1.987,1.987,0,0,1,1.668.35,34.248,34.248,0,0,1,5.278.092C6.664.011,7.761-.2,9.01.53a1.857,1.857,0,0,1,.62,2.187c-.748,1.6-2.417,2.122-4.082,2.293a9.149,9.149,0,0,1-.924.049A6.629,6.629,0,0,1,.79,3.874Z" transform="translate(1.43 1.345)" fill="#404040" stroke="rgba(0,0,0,0)" stroke-width="1"/>
                  <path id="União_172" data-name="União 172" d="M1.908,23.245C-.9,21.961-.115,17.773,1.136,15.423l0-.007c.722-1.385,1.863-2.349,3.2-2.06,4.366.948,2.148,9.61-1.9,8.735A2.562,2.562,0,0,1,.506,20.144,3.815,3.815,0,0,0,1.975,23.1c.057.044.027.15-.036.15A.071.071,0,0,1,1.908,23.245Zm8.67-15.853A6.815,6.815,0,0,1,6.007,5.653C4.727,4.576,3.64,3.2,3.924,1.458A1.855,1.855,0,0,1,5.668,0C7.111.1,7.9.89,9,1.74a35.232,35.232,0,0,1,2.839,2.244,1.989,1.989,0,0,1-1.231,3.409Z" transform="translate(22.126 0)" fill="#404040" stroke="rgba(0,0,0,0)" stroke-width="1"/>
                </g>
                <path id="União_169" data-name="União 169" d="M2.948,63.785s-6.284-27.854-.5-40.806c2.266-5.075,9.787-6.743,11.752-7.1a12.169,12.169,0,0,1,1.247-7.259C18.5,2.661,25,.15,31.4.006A31.85,31.85,0,0,1,42,1.8a31.756,31.756,0,0,1,8.5,4.184C52.849,4.422,60.978-.409,69.869.9A24.1,24.1,0,0,1,82.525,5.365c3.827,2.8,6.685,6.935,6.519,11.826a16.04,16.04,0,0,1-6.322,11.7,22.275,22.275,0,0,1-4.879,2.922c-.152.145-.237.22-.237.22S80.672,42.257,64.261,43.97c-15.98,1.662-42.274-14.015-42.274-14.015s0,.017-.008.049q2.1,1.394,4.242,2.734A103.186,103.186,0,0,0,46.3,42.654a50.529,50.529,0,0,0,21.147,3.219c.1-.01.135.144.031.159a48.2,48.2,0,0,1-12.091.2A56.638,56.638,0,0,1,34.55,39.484a94.487,94.487,0,0,1-12.759-8.476A104.279,104.279,0,0,1,11.728,59.183,9.3,9.3,0,0,1,3.463,63.8C3.136,63.8,2.948,63.785,2.948,63.785ZM80.239,5.717c10.791,9.231,3.011,20.189-.828,24.47a20.12,20.12,0,0,0,3.831-3.022,14.72,14.72,0,0,0,4.3-11.689c-.6-4.587-4.018-8.1-7.859-10.354q-.323-.189-.648-.367Q79.642,5.207,80.239,5.717Zm-58.107-2.4C17.7,5.538,13.864,10.72,14.4,15.846c.177-.03.274-.043.274-.043s0-8.189,8.922-12.312c8.379-3.874,22.65,1.5,25.667,2.72a43.451,43.451,0,0,0-8.284-3.48A34.746,34.746,0,0,0,31.486,1.3,20.768,20.768,0,0,0,22.132,3.321Z" transform="translate(3.239)" fill="#404040" stroke="rgba(0,0,0,0)" stroke-width="1"/>
                <g id="orelha" transform="translate(0 44.935)">
                  <path id="Caminho_1837" data-name="Caminho 1837" d="M135.428,204.612s-4.146-15.067-10.7-14.014-6.431,20.8-.853,25.481a6.947,6.947,0,0,0,10.018-.39Z" transform="translate(-119.752 -190.545)" fill="#a56a62"/>
                  <path id="Caminho_1838" data-name="Caminho 1838" d="M121.915,192.688a.1.1,0,0,0-.1.16c3.86,3.432,4.747,8.454,4.865,13.378-.746-2.146-2.248-3.71-5.052-2.913-.147.043-.1.267.037.286a4.274,4.274,0,0,1,3.929,2.98,20.614,20.614,0,0,1,.845,4.333c.067.478.871.521.885,0V210.8C129.487,205.1,127.884,195.465,121.915,192.688Z" transform="translate(-116.76 -186.976)" fill="#404040"/>
                </g>
              </g>
            </g>
            <g id="Braço-esquerdo" transform="translate(83.389 106.957)">
              <g id="braço" transform="translate(6.413 2.335)">
                <path id="Caminho_1839" data-name="Caminho 1839" d="M109.757,238.534c-7.813,43.726-3.114,135.418,16.807,150.782,23.062,17.785,124.04,21.436,146.495,14.818,8.938-2.633-12.343-61.826-22.305-61.757-41.758.291-76.952-4.512-80.536-9.449-5.509-7.58-19.916-60.907-29.733-94.307C128.149,196.659,113.261,218.916,109.757,238.534Z" transform="translate(-106.176 -214.78)" fill="#a56a62"/>
                <g id="cebolar" transform="translate(188.209 63.383)">
                  <path id="Caminho_1840" data-name="Caminho 1840" d="M243.434,240.108l-64.266,41.924c-1.89,1.232-2.074,3.25-.406,4.5L208.6,308.919a6.035,6.035,0,0,0,6.444.032l64.269-41.924c1.893-1.235,2.072-3.25.406-4.5l-29.832-22.385A6.039,6.039,0,0,0,243.434,240.108Z" transform="translate(-174.867 -237.323)" fill="#404040"/>
                  <path id="Caminho_1841" data-name="Caminho 1841" d="M242.405,239.41l-64.269,41.921c-1.89,1.232-2.072,3.25-.406,4.5l29.835,22.388a6.046,6.046,0,0,0,6.447.029l64.267-41.921c1.9-1.238,2.074-3.253.409-4.5l-29.834-22.385A6.029,6.029,0,0,0,242.405,239.41Z" transform="translate(-176.591 -238.493)" fill="#37474f"/>
                  <path id="Caminho_1842" data-name="Caminho 1842" d="M238.552,241.22l-58.926,38.439c-1.8,1.173-2.05,3.034-.556,4.154l26.691,20.028a5.591,5.591,0,0,0,5.963-.1l58.929-38.439c3.67-2.392,3.269-3.83,1.772-4.953l-5.346-4.012a1.41,1.41,0,0,0-1.443.152l-.208.136a1.724,1.724,0,0,1-2.4-.19l-12.365-9.28c-.692-.518-1.248-.941-.1-1.687l.211-.136c.486-.318.628-.762.315-1l-5.348-4.015C244.243,239.2,241.912,239.028,238.552,241.22Z" transform="translate(-174.077 -236.782)" fill="#fff"/>
                  <path id="Caminho_1843" data-name="Caminho 1843" d="M207.51,243.519l3.373,2.531a.411.411,0,0,0,.441.005h0a.176.176,0,0,0,.024-.307l-3.373-2.531a.416.416,0,0,0-.441-.005h0A.176.176,0,0,0,207.51,243.519Z" transform="translate(-125.001 -230.7)" fill="#fff"/>
                  <path id="Caminho_1844" data-name="Caminho 1844" d="M189.489,260.263l22.677,17.016,25.27-16.484L214.759,243.78Z" transform="translate(-155.014 -229.649)" fill="#f28e00"/>
                  <path id="Caminho_1845" data-name="Caminho 1845" d="M191.47,254.217l13.233,9.93,1.485-.968-13.233-9.93Z" transform="translate(-151.701 -213.809)" fill="#a6a6a6"/>
                  <path id="Caminho_1846" data-name="Caminho 1846" d="M189.646,253.825l15.668,11.757.743-.484-15.668-11.758Z" transform="translate(-154.751 -213.654)" fill="#a6a6a6"/>
                  <path id="Caminho_1847" data-name="Caminho 1847" d="M189.138,254.157l15.669,11.757.742-.484L189.88,253.673Z" transform="translate(-155.602 -213.099)" fill="#a6a6a6"/>
                  <path id="Caminho_1848" data-name="Caminho 1848" d="M188.629,254.488,204.3,266.246l.742-.484L189.371,254Z" transform="translate(-156.453 -212.544)" fill="#a6a6a6"/>
                  <path id="Caminho_1849" data-name="Caminho 1849" d="M209.248,247.726l2.825,2.12.612-.4-2.826-2.12Z" transform="translate(-121.96 -223.715)" fill="#a6a6a6"/>
                  <path id="Caminho_1850" data-name="Caminho 1850" d="M208.829,248l2.825,2.12.612-.4-2.825-2.12Z" transform="translate(-122.661 -223.258)" fill="#a6a6a6"/>
                  <path id="Caminho_1851" data-name="Caminho 1851" d="M208.409,248.273l2.826,2.12.612-.4-2.826-2.121Z" transform="translate(-123.363 -222.8)" fill="#a6a6a6"/>
                  <path id="Caminho_1853" data-name="Caminho 1853" d="M182.227,258.217l18.3,13.73,5.839-3.808-18.3-13.729Z" transform="translate(-167.163 -211.868)" fill="#f28e00"/>
                </g>
                <g id="mão-3" data-name="mão" transform="translate(133.688 100.26)">
                  <path id="Caminho_1854" data-name="Caminho 1854" d="M186.177,341.564c4.921.013,46.281-10.253,58.811-17.3,7.992-4.493,21.773-12.279,35.958-27.474,16.369-17.537,26.023-31.208,26.328-38.783.353-8.8.1-10.333-33.045,16.62-18.753,15.249-30.738,13.41-40.384,9.732-39.537-15.08-77.652-4.774-77.652-4.774S167.261,341.505,186.177,341.564Z" transform="translate(-156.193 -252.29)" fill="#a56a62"/>
                  <path id="Caminho_1855" data-name="Caminho 1855" d="M236.208,285.822c-10.082-3.461,29.84-12.071,34.443-23.3s-7.81-11.651-18.9-8.363c-38.489,11.411-61.067,2.047-84.2,17.868-2.438,1.668-9.7,5.239-9.828,6.533C156.642,289.542,236.208,285.822,236.208,285.822Z" transform="translate(-153.649 -252.167)" fill="#a56a62"/>
                  <path id="Caminho_1856" data-name="Caminho 1856" d="M202.415,255.838c-7.158-.513-14.3-.706-21.4.6-6.6,1.214-12.5,4.25-18.125,7.807-.243.152-.048.556.2.4,11.857-7.142,25.86-7.823,39.3-8.492A.158.158,0,0,0,202.415,255.838Z" transform="translate(-145.17 -247.009)" fill="#404040"/>
                </g>
              </g>
              <g id="manga-2" data-name="manga">
                <path id="Caminho_1857" data-name="Caminho 1857" d="M104.6,298.612l24.329-4.565,30.618-5.747s-7.187-34.1-15.962-55.374c-9.024-21.872-24.005-29.019-32.307,1.048C103.121,263.5,104.6,298.612,104.6,298.612Z" transform="translate(-102.581 -213.906)" fill="#f28e00"/>
                <path id="Caminho_1858" data-name="Caminho 1858" d="M105.392,246.957c9.355-2.122,43.7-9.425,48.283-8.719.1.016.163.35.075.4-4.041,2.272-38.749,7.588-48.253,8.893C105.32,247.556,105.219,247,105.392,246.957Z" transform="translate(-101.225 -173.282)" fill="#404040"/>
                <path id="Caminho_1859" data-name="Caminho 1859" d="M108.959,273.406l-4.4.826s-.617-16.909,2.726-45.752" transform="translate(-102.544 -189.526)" fill="none" stroke="#404040" stroke-width="0.75"/>
                <path id="Caminho_1860" data-name="Caminho 1860" d="M103.777,231.651s.922,7.5,2.387,14.4" transform="translate(-103.777 -184.221)" fill="none" stroke="#404040" stroke-width="0.5"/>
                <path id="Caminho_1861" data-name="Caminho 1861" d="M129.327,266.211l2.018-.38s-5.4-25.053-10-38.495" transform="translate(-74.383 -191.438)" fill="none" stroke="#404040" stroke-width="0.75"/>
                <path id="Caminho_1862" data-name="Caminho 1862" d="M123.218,229.752a69.242,69.242,0,0,1,0,11.143" transform="translate(-71.255 -187.398)" fill="none" stroke="#404040" stroke-width="0.5"/>
              </g>
            </g>
          </g>
        </g>
      </g>
      <g id="Speech_Bubble" data-name="Speech Bubble" transform="translate(2234.37 1130.553)">
        <path id="União_166" data-name="União 166" d="M1.684,114.37a5.106,5.106,0,1,1,5.526,4.657q-.224.019-.445.019A5.11,5.11,0,0,1,1.684,114.37Zm11.4-13.408a8.578,8.578,0,1,1,9.285,7.82q-.377.033-.748.032A8.584,8.584,0,0,1,13.084,100.962ZM28.852,83.916a19.713,19.713,0,0,1-3.352.7,20.358,20.358,0,0,1-19.087-31.9A29.891,29.891,0,0,1,46.625,9.422a25.047,25.047,0,0,1,43.028,6.841,16.073,16.073,0,0,1,3.215-.725,16.429,16.429,0,0,1,14.1,27.368,29.2,29.2,0,0,1,3.014,9.91A29.877,29.877,0,0,1,68.716,84a25.028,25.028,0,0,1-39.864-.087Z" transform="translate(0 0)" fill="#fff" stroke="#404040" stroke-width="1"/>
        <path id="União_167" data-name="União 167" d="M.112,36.619A15.024,15.024,0,0,1,9.6,20.743l-.559-4.607a3.4,3.4,0,0,1,2.98-3.9,3.447,3.447,0,0,1,3.822,3.041l.892,7.37c.009.072-.06.079-.051.151.078.061.078.061.086.133a3.587,3.587,0,0,1-2.98,3.9,8.024,8.024,0,0,0-6.949,8.936,7.882,7.882,0,0,0,8.874,6.937,7.75,7.75,0,0,0,6.19-4.738,3.424,3.424,0,0,1,4.564-1.872,3.508,3.508,0,0,1,1.755,4.6,14.582,14.582,0,0,1-13.5,9.071A14.845,14.845,0,0,1,.112,36.619ZM37.782,49.247a3.5,3.5,0,0,1-2.656-4.138l.257-1.258a3.43,3.43,0,1,1,6.709,1.427l-.257,1.258a3.346,3.346,0,0,1-3.292,2.792A3.652,3.652,0,0,1,37.782,49.247Zm2.453-12.024a3.5,3.5,0,0,1-2.656-4.138l1.483-7.271c.013-.069.082-.054.1-.124-.054-.085-.054-.085-.039-.154a3.528,3.528,0,0,1,4.054-2.712,7.9,7.9,0,0,0,9.4-6.169,8.013,8.013,0,0,0-6.209-9.49A7.627,7.627,0,0,0,39.01,9.613,3.4,3.4,0,0,1,34.1,9.88a3.53,3.53,0,0,1-.208-4.93A14.485,14.485,0,0,1,47.765.315,15.049,15.049,0,0,1,59.214,18.067a14.768,14.768,0,0,1-14,11.9l-.927,4.544A3.348,3.348,0,0,1,40.995,37.3,3.656,3.656,0,0,1,40.235,37.223Zm-32.511-32L7.568,3.948a3.4,3.4,0,0,1,2.98-3.9,3.447,3.447,0,0,1,3.822,3.042l.155,1.276A3.454,3.454,0,0,1,11.1,8.295,3.409,3.409,0,0,1,7.724,5.222Z" transform="translate(26.346 22.443)" fill="#d42a2a"/>
      </g>
    </g>
  </g>
</svg>
